<?xml version="1.0" standalone="no"?>
<!DOCTYPE svg PUBLIC "-//W3C//DTD SVG 20010904//EN"
 "http://www.w3.org/TR/2001/REC-SVG-20010904/DTD/svg10.dtd">
<svg version="1.0" xmlns="http://www.w3.org/2000/svg"
 width="300.000000pt" height="300.000000pt" viewBox="0 0 300.000000 300.000000"
 preserveAspectRatio="xMidYMid meet">
<metadata>
Created by potrace 1.14, written by Peter Selinger 2001-2017
</metadata>
<g transform="translate(0.000000,300.000000) scale(0.100000,-0.100000)"
fill="#000000" stroke="none">
<path d="M0 1500 l0 -1500 1500 0 1500 0 0 1500 0 1500 -1500 0 -1500 0 0
-1500z m1817 616 c97 -31 189 -126 224 -231 20 -59 18 -228 -4 -290 -23 -66
-80 -140 -140 -182 -81 -55 -129 -64 -359 -70 l-208 -6 0 -243 0 -244 -130 0
-130 0 0 646 0 646 348 -4 c290 -4 355 -7 399 -22z"/>
<path d="M1330 1741 l0 -181 113 0 c214 1 287 24 327 106 41 83 10 180 -69
223 -41 23 -59 25 -208 29 l-163 5 0 -182z"/>
</g>
</svg>
